<svg xmlns="http://www.w3.org/2000/svg" width="44.282" height="35.987" viewBox="0 0 44.282 35.987">
  <g id="Group_224" data-name="Group 224" transform="translate(0 0)">
    <path id="Path_1950" data-name="Path 1950" d="M364.1,219.718a18.163,18.163,0,0,1-5.218,1.431,9.11,9.11,0,0,0,3.994-5.026,18.179,18.179,0,0,1-5.769,2.2,9.093,9.093,0,0,0-15.481,8.286,25.792,25.792,0,0,1-18.725-9.492,9.095,9.095,0,0,0,2.811,12.129,9.043,9.043,0,0,1-4.115-1.136c0,.038,0,.076,0,.114a9.091,9.091,0,0,0,7.287,8.908,9.1,9.1,0,0,1-4.1.156,9.094,9.094,0,0,0,8.487,6.309,18.337,18.337,0,0,1-13.45,3.762,25.711,25.711,0,0,0,13.926,4.082c16.71,0,25.848-13.843,25.848-25.849q0-.591-.026-1.175A18.463,18.463,0,0,0,364.1,219.718Z" transform="translate(-319.819 -215.458)" fill="#2aa9e0"/>
  </g>
</svg>
